<?xml version="1.0" encoding="utf-8"?>
<!-- Generator: Adobe Illustrator 27.5.0, SVG Export Plug-In . SVG Version: 6.00 Build 0)  -->
<svg xmlns="http://www.w3.org/2000/svg" xmlns:xlink="http://www.w3.org/1999/xlink" version="1.1" x="0px" y="0px" viewBox="0 0 500 500" style="enable-;background-color:transparent;" xml:space="preserve">
<g id="BACKGROUND">
	<rect style="fill:none;" width="500" height="500" fill="none"/>
</g>
<g id="OBJECTS">
	<ellipse style="fill:#D3D8EB;" cx="226.813" cy="431.357" rx="148.076" ry="24.126"/>
	<path style="fill:#292F44;" d="M91.282,174.418c-0.238-0.902-0.475-1.803-0.713-2.705c-1.098,3.08-1.776,6.31-2.01,9.573   c-0.356-0.772-0.575-1.606-0.644-2.453c-0.71,3.593-0.88,7.292-0.503,10.935c-0.801-0.621-1.161-1.642-1.521-2.663   c-0.293,4.546-0.338,9.107-0.136,13.658c-0.605-0.922-1.211-1.845-1.817-2.767c0.618,6.481,2.011,12.889,4.141,19.042   c-0.7,0.028-1.176-0.442-1.653-0.913c2.73,13.417,9.779,25.92,19.846,35.199c2.3,2.119,4.901,4.325,5.477,7.398   c0.257,1.368,0.075,2.782-0.222,4.141c-2.117,9.712-9.782,17.473-12.056,27.148c-2.023,8.604,0.498,17.691,4.467,25.589   c-1.57,7.59-3.94,13.845-7.844,19.057c-5.206,6.951-12.788,11.665-20.209,16.175c-1.926,1.17-3.901,2.38-5.257,4.18   c-1.793,2.379-2.28,5.542-1.955,8.504c0.324,2.96,1.523,5.737,2.435,8.573c1.696,5.273,0.162,10.604,1.013,15.529   c0.795,4.596,3.387,8.659,4.946,13.055c2.352,6.631,2.303,13.88,1.47,20.865c-0.113,0.951-0.239,1.935,0.037,2.852   c0.75,2.505,3.901,3.268,5.735,5.132c0.998,1.015,1.664,2.423,2.944,3.045c1.782,0.866,3.917-0.164,5.876,0.139   c1.893,0.294,3.449,1.808,5.355,1.998c1.348,0.134,2.665-0.418,3.865-1.045c0.807-0.421,1.614-0.89,2.514-1.026   c0.977-0.149,1.962,0.108,2.94,0.25c0.978,0.141,2.054,0.144,2.857-0.431c0.803-0.576,1.09-1.914,0.331-2.546   c1.422,0.195,2.39,0.91,3.357,1.625c0.236,0.175,0.514,0.359,0.799,0.29c0.495-0.119,0.517-0.816,0.379-1.306   c-0.677-2.4-2.412-4.334-4.095-6.175c-1.418-1.553-2.836-3.106-4.254-4.658c-0.754-0.825-1.542-1.674-2.576-2.096   c-2.256-0.922-4.995,0.441-7.207-0.581c-1.65-0.764-2.47-2.609-3.061-4.328c-1.579-4.597-2.52-9.386-3.329-14.179   c-0.469-2.783-0.898-5.59-0.878-8.412c0.059-8.184,3.97-16.038,9.631-21.949c5.66-5.911,12.96-10.033,20.551-13.089   c-3.132,7.376-7.644,13.494-12.087,19.555c-1.022,1.395-2.067,2.84-2.473,4.522c-0.541,2.243,0.136,4.616,1.172,6.678   c1.035,2.062,2.426,3.931,3.459,5.996c1.698,3.396,2.237,7.293,4.006,10.653c3.291,6.248,5.26,12.915,8.474,18.948   c0.953,1.79,2.036,3.507,3.117,5.222c0.286,0.452,0.58,0.914,1.001,1.244c0.465,0.365,1.047,0.54,1.558,0.836   c2.541,1.472,2.634,5.344,4.98,7.108c1.354,1.019,3.185,1.115,4.873,0.964c1.688-0.149,3.389-0.501,5.061-0.223   c1.755,0.291,3.419,1.268,5.191,1.108c1.78-0.161,3.355-1.46,5.142-1.403c0.782,0.024,1.53,0.31,2.3,0.454   c2.684,0.502,5.615-0.944,6.85-3.379c1.042-0.636,2.217-0.457,2.811,0.277c0.202,0.249,0.408,0.585,0.728,0.563   c0.259-0.019,0.439-0.293,0.445-0.553c0.007-0.26-0.112-0.504-0.229-0.736c-0.503-1.001-1.006-2.001-1.508-3.002   c-0.292-0.582-0.588-1.169-0.987-1.684c-0.787-1.013-1.922-1.68-2.994-2.383c-1.376-0.9-2.691-1.893-3.934-2.969   c-0.675-0.584-1.344-1.203-2.16-1.563c-1.63-0.72-3.507-0.289-5.25,0.082c-1.541,0.329-3.137,0.603-4.683,0.297   c-2.007-0.397-3.717-1.743-5.016-3.324c-1.3-1.58-2.312-3.375-3.325-5.153c-2.229-3.918-3.772-7.824-5.228-11.739   c-0.735-1.977-1.425-4.018-1.446-6.129c-0.021-2.029,0.578-4.012,1.268-5.922c3.039-8.409,7.982-16.124,14.352-22.399   c2.289-2.254,4.753-4.32,7.203-6.397c8.197-6.951,16.398-14.208,21.954-23.408c5.604-9.279,8.214-20.046,9.971-30.742   c2.328-1.814,3.644-2.102,4.955-2.075c0.99,0.02,1.978,0.217,2.965,0.136c1.439-0.117,2.758-0.813,4.032-1.493   c0.777,0.668,1.698,0.868,2.506,0.806c0.808-0.061,1.602-0.317,2.411-0.275c2.237,0.118,3.866,2.419,6.095,2.654   c-0.751-0.514-1.204-1.434-1.153-2.343c1.232,0.612,2.184,1.722,3.468,2.212c1.284,0.491,3.174-0.131,3.15-1.506   c1.536,1.604,3.831,2.447,6.04,2.218c1.038-0.107,2.066-0.436,3.105-0.332c2.133,0.215,3.678,2.154,5.705,2.854   c0.959,0.331,1.991,0.371,2.991,0.547c5.877,1.028,10.213,6.581,16.109,7.492c-0.432-0.957-0.987-1.86-1.646-2.677   c8.594,5.225,17.7,10.364,27.627,13.188c7.335,2.087,15.039,2.872,22.645,2.304c1.302,1.522,2.141,3.533,2.721,5.627   c0.665,2.396,0.985,4.87,1.371,7.325c1.91,12.15,6.458,23.641,10.617,35.215c2.422,6.739,3.833,13.486,2.266,19.768   c-0.24,0.963-0.563,1.916-0.61,2.907c-0.047,0.99,0.233,2.059,1.001,2.687c0.427,0.352,0.968,0.537,1.505,0.668   c2.182,0.537,4.548,0.335,6.602,1.249c2.225,0.99,3.702,3.118,4.951,5.206c2.205,3.688,4.066,7.582,5.55,11.613   c0.471,1.279,0.919,2.601,1.771,3.667c1.302,1.631,3.355,2.435,5.309,3.17c0.43,1.846,2.356,2.621,4.08,2.807   c1.724,0.187,3.554,0.04,5.097,0.831c1.546,0.793,2.612,2.447,4.291,2.893c1.788,0.476,3.584-0.575,5.394-0.962   c1.987-0.426,4.043-0.043,6.07,0.115c2.025,0.158,4.224,0.036,5.831-1.207c1.134-0.877,1.819-2.196,2.471-3.473   c1.399-0.248,1.68,0.178,1.846,0.537c0.166,0.357,0.466,0.778,0.847,0.675c0.353-0.096,0.43-0.559,0.406-0.923   c-0.034-0.545-0.138-1.086-0.307-1.606c0.275-0.337,0.521-0.165,0.751-0.022c0.229,0.143,0.524,0.265,0.76,0.134   c0.263-0.147,0.289-0.514,0.239-0.81c-0.087-0.495-0.3-0.968-0.616-1.36c-0.538-0.669-1.355-1.099-1.788-1.84   c0.59-1.371-0.467-2.782-1.448-3.771c-1.63-1.643-3.362-3.348-5.588-3.986c-3.688-1.058-7.703,1.092-11.421,0.144   c-2.544-0.649-4.508-2.639-6.173-4.669c-3.86-4.707-6.899-10.134-8.518-16.002c-0.649-2.352-1.069-4.826-0.644-7.228   c0.242-1.359,0.748-2.664,0.962-4.028c0.194-1.233,0.146-2.489,0.068-3.734c-0.666-10.726-3.431-21.405-2.309-32.093   c2.139-8.718,1.447-17.947,3.453-26.673c2.169-9.435,7.368-17.831,11.782-26.447c5.179-10.106,9.378-20.797,11.406-31.972   c1.588-8.752,1.832-17.713,3.566-26.437c1.457-7.329,4.54-14.97,3.484-22.367c-0.144-0.474,0.448-0.887,0.939-0.826   c0.492,0.062,0.899,0.394,1.345,0.608c0.093,0.043,0.195,0.083,0.294,0.057c0.09-0.024,0.155-0.099,0.211-0.173   c0.224-0.304,0.348-0.67,0.547-0.991c0.2-0.321,0.515-0.613,0.893-0.617c0.203-0.002,0.399,0.08,0.575,0.182   c0.553,0.32,0.98,0.853,1.171,1.463c1.249-0.826,2.243-2.035,2.809-3.421c0.356,0.249,0.77,0.415,1.198,0.483   c-0.345-2.358-0.525-4.658-0.433-6.948c0.076-1.898,0.447-3.992,1.945-5.16c0.709-0.553,1.593-0.828,2.374-1.274   c2.893-1.648,3.92-5.229,5.785-7.987c1.379-2.039,3.31-3.7,5.532-4.759c4.783-2.278,10.806-1.819,14.883-5.201   c1.123-0.931,2.065-2.135,3.396-2.732c1.42-0.635,3.047-0.479,4.601-0.435c2.087,0.058,4.185-0.113,6.218-0.584   c9.04-2.096,15.638-10.331,19.068-18.954c1.576-0.827,2.427-2.552,3.176-4.168c1.298-2.798,2.621-5.689,2.741-8.771   c0.816-1.251,1.069-2.874,0.741-4.321c-0.328-1.447-1.179-2.732-2.202-3.807c-0.368-0.388-0.766-0.756-1.227-1.028   c-1.598-0.944-3.616-0.58-5.431-0.186c-7.491-1.858-14.83-0.377-21.866-1.58c-2.293-0.391-4.681-1.16-6.141-2.971   c-0.584-0.724-0.986-1.578-1.321-2.446c-0.524-1.359-0.897-2.776-1.111-4.217c-0.333-2.249-0.474-4.908-2.377-6.152   c-1.384-0.905-3.265-0.698-4.681-1.553c-0.687-0.414-1.209-1.048-1.735-1.655c-1.357-1.571-2.803-3.071-4.379-4.421   c-3.462-2.966-7.427-4.53-11.403-5.589c-3.976-1.059-8.067-1.614-12.073-2.555c-1.98-0.465-4.202-1.254-4.927-3.154   c-0.454-1.19-0.185-2.52,0.091-3.764c0.533-2.417,1.067-4.834,1.6-7.251c0.712-3.221,1.426-6.466,1.523-9.763   c0.12-4.111-0.723-8.182-1.562-12.209c-0.954-4.579-1.993-9.345-4.916-12.996c-0.147-0.184-0.303-0.368-0.501-0.495   c-0.677-0.435-1.634-0.043-2.097,0.614c-0.464,0.658-0.573,1.493-0.694,2.289c-1.051,6.883-4.187,13.434-8.889,18.569   c-3.29-7.438-6.899-14.784-11.13-21.75c-1.877-3.09-3.99-6.216-7.117-8.028c-0.665-0.384-1.411-0.712-2.172-0.628   c-1.583,0.176-2.428,1.944-2.776,3.498c-0.741,3.305-0.595,6.735-0.875,10.111c-0.822,9.928-5.297,19.225-6.634,29.097   c-0.677,5.003-0.536,10.117,0.419,15.075c0.262,1.362,0.586,2.76,0.322,4.122c-0.177,0.911-0.61,1.757-0.778,2.669   c-0.319,1.734,0.368,3.533,1.451,4.925c1.082,1.393,2.53,2.448,3.962,3.478c-0.373,0.428-0.605,5.282-0.605,5.282   c-1.853,2.006-3.801,4.214-4.082,6.93c-0.089,0.852-0.008,1.734-0.283,2.545c-0.265,0.782-0.833,1.417-1.235,2.138   c-0.804,1.447-0.903,3.163-1.219,4.788c-0.746,3.819-2.754,7.265-4.881,10.525c-2.126,3.26-4.424,6.455-5.866,10.07   c-1.444,3.615-1.956,7.788-0.433,11.37c-6.877,10.967-18.638,17.149-25.289,27.284c-14.47,3.588-28.424,7.146-42.68,8.768   c-6.689,0.761-13.418,1.093-20.139,1.488c-17.203,1.012-34.467,2.458-51.207,6.545c-16.741,4.088-33.038,10.935-46.394,21.825   c-9.957-5.676-14.872-15.291-18.699-24.577c-1.701-4.126-3.305-8.363-3.734-12.806c-0.369-3.825,0.147-7.679,0.786-11.469   c0.488-2.899,1.07-5.844,2.514-8.405c1.398-2.48,3.531-4.464,5.774-6.217c9.135-7.137,20.574-11.118,28.973-19.108   c0.281-0.267,0.572-0.565,0.635-0.947c0.171-1.047-1.292-1.478-2.353-1.476l-14.335,0.031c-4.384,0.009-9.1,0.122-12.634,2.717   c-0.133-0.769,0.125-1.286,0.384-1.804c-2.275,0.891-4.416,2.122-6.329,3.641c0.277-0.931,0.554-1.864,0.83-2.796   c-1.602,1.397-3.034,2.988-4.255,4.727c-0.634-1.116-0.508-2.005-0.382-2.894c-2.155,2.043-3.902,4.514-5.109,7.227   c0.067-0.854,0.135-1.709,0.202-2.563c-1.57,2.461-2.967,5.033-4.177,7.689c-0.088-0.819-0.176-1.638-0.264-2.457   C93.499,168.144,91.851,171.582,91.282,174.418z"/>
</g>
</svg>
